<svg width="182" height="65" viewBox="0 0 182 65" fill="none" xmlns="http://www.w3.org/2000/svg">
<path fill-rule="evenodd" clip-rule="evenodd" d="M0.921997 36.4041H40.4672V25.1285C41.2726 25.1285 42.078 25.1285 42.8834 25.048C43.8499 25.048 44.8164 24.9674 45.7023 24.8064C46.5077 24.7258 47.152 24.5647 47.6353 24.4037V38.0149H61.7298V0H47.6353V12.4837C46.6688 12.6448 45.4607 12.7253 44.0915 12.7253C42.7223 12.8059 41.5948 12.8059 40.4672 12.8059H40.4672V0.644322H0.921997V36.4041ZM27.1781 12.3226V24.7258H14.2111V12.3226H27.1781ZM47.6353 54.123V64.9153H61.7298V41.2365H3.41874V54.123H47.6353ZM149.49 13.5307V1.44972H112.844V61.4521H139.664C142.081 61.4521 144.416 61.3716 146.832 61.0494C149.088 60.8078 151.021 60.3246 152.47 59.5192V48.0019C150.859 48.4852 149.007 48.8073 146.752 48.9684C144.497 49.2906 142.242 49.3711 139.986 49.3711H127.744V13.5307H149.49ZM181.948 35.4377V21.5042C180.992 21.5042 179.784 21.6051 178.324 21.727C177.938 21.7591 177.536 21.7928 177.116 21.8264C175.263 22.068 173.572 22.4707 172.041 22.9539V0H157.142V64.8348H172.041V36.7263C173.572 36.3236 175.263 36.0014 177.035 35.7598C177.304 35.7374 177.568 35.715 177.827 35.6931C179.43 35.5571 180.838 35.4377 181.948 35.4377ZM70.357 54.2036H84.5321L86 45H79V40H93V39H79V38H93V37H79H76H75V38H76V39H75V40H76V45H69L70.357 54.2036ZM70.357 26.8199H84.5321V10.6313H70.357V26.8199Z" fill="url(#paint0_linear_3_85)"/>
<defs>
<linearGradient id="paint0_linear_3_85" x1="125" y1="32.4577" x2="0.921997" y2="32.4577" gradientUnits="userSpaceOnUse">
<stop stop-color="#FF828B"/>
<stop offset="0.48" stop-color="#FFD7B3"/>
<stop offset="1" stop-color="#B5BCFF"/>
</linearGradient>
</defs>
</svg>
